<?xml version="1.0" encoding="UTF-8"?>
<!DOCTYPE svg PUBLIC "-//W3C//DTD SVG 1.1//EN" "http://www.w3.org/Graphics/SVG/1.1/DTD/svg11.dtd">
<!-- Creator: CorelDRAW 2018 (64-Bit) -->
<svg xmlns="http://www.w3.org/2000/svg" xml:space="preserve" width="295px" height="100px" version="1.1" style="shape-rendering:geometricPrecision; text-rendering:geometricPrecision; image-rendering:optimizeQuality; fill-rule:evenodd; clip-rule:evenodd"
viewBox="0 0 119.22 40.41"
 xmlns:xlink="http://www.w3.org/1999/xlink">
 <defs>
  <style type="text/css">
   <![CDATA[
    .fil3 {fill:#121291}
    .fil0 {fill:#FEFEFE}
    .fil2 {fill:#FFF212}
    .fil1 {fill:#121291;fill-rule:nonzero}
   ]]>
  </style>
 </defs>
 <g id="Layer_x0020_1">
  <metadata id="CorelCorpID_0Corel-Layer"/>
  <g id="_1833313683840">
   <polygon class="fil0" points="0.26,0.28 32.88,0.28 32.88,40.13 0.26,40.13 "/>
   <path class="fil1" d="M0.14 0l32.85 0 0.14 0 0 0.14 0 40.13 0 0.14 -0.14 0 -32.85 0 -0.14 0 0 -0.14 0 -40.13 0 -0.14 0.14 0zm32.71 0.28l-32.57 0 0 39.85 32.57 0 0 -39.85z"/>
   <polygon class="fil2" points="1.21,1.21 31.92,1.21 31.92,39.2 1.21,39.2 "/>
   <path class="fil3" d="M1.21 1.21l30.71 0 0 17.55 -8.95 5 5.45 -10.07 -7.74 8.38 2.12 -11.29 -4.82 10.4 -1.41 -11.4 -1.42 11.4 -4.82 -10.4 2.13 11.29 -7.75 -8.38 5.46 10.07 -8.96 -5 0 -17.55zm30.71 17.93l0 5.53 -7.29 1.42 7.29 -6.95zm0 6.62l0 3.88 0 0 0 -2.15 -3.62 0 3.62 -1.73zm0 5.11l0 3.89 0 0 0 -3.89zm0 4.97l0 3.36 0 0 0 -3.36zm-30.71 -8.35l0 -1.73 3.62 1.73 -3.62 0zm0 -2.82l0 -5.53 7.29 6.95 -7.29 -1.42z"/>
   <path class="fil0" d="M16.57 33.13c-0.18,-0.04 -0.29,-0.16 -0.35,-0.26 -0.08,-0.14 -0.09,-0.31 -0.17,-0.46 -0.21,-0.43 -0.54,-0.39 -0.66,-0.39l-10.69 -0.07 3.05 -6.02 17.65 0 3.05 6.02 -10.7 0.07c-0.12,0 -0.44,-0.04 -0.66,0.39 -0.07,0.15 -0.09,0.32 -0.17,0.46 -0.06,0.1 -0.16,0.22 -0.35,0.26z"/>
   <path class="fil1" d="M4.58 32.02l0.05 -0.11 3.05 -6.02 0.02 -0.04 0.05 0 17.65 0 0.04 0 0.02 0.04 3.05 6.02 0.06 0.11 0.01 0 -0.01 0.01 0.01 0.01 -0.01 0 -0.32 1.21c-3.44,-0.12 -6.87,-0.25 -10.31,-0.37 -0.14,-0.01 -0.29,-0.01 -0.33,0.27 -0.08,1.23 -2.06,1.23 -2.14,0 -0.04,-0.28 -0.19,-0.28 -0.33,-0.27 -3.44,0.12 -6.87,0.25 -10.3,0.37l-0.28 -1.23 0.02 0zm11.83 0.95c0.04,0.03 0.1,0.06 0.16,0.08 0.07,-0.02 0.12,-0.05 0.16,-0.08 0.06,-0.04 0.1,-0.1 0.13,-0.15 0.03,-0.06 0.06,-0.14 0.08,-0.21 0.02,-0.08 0.05,-0.16 0.08,-0.24 0.22,-0.44 0.55,-0.43 0.7,-0.43l0.03 0 10.57 -0.07 -2.97 -5.86 -17.56 0 -2.97 5.86 10.57 0.07 0.03 0c0.15,0 0.48,-0.01 0.7,0.43 0.04,0.08 0.06,0.16 0.09,0.24 0.02,0.07 0.04,0.15 0.07,0.21 0.03,0.05 0.07,0.11 0.13,0.15z"/>
   <path class="fil1" d="M3.12 37.45l0.34 0c0.32,0 0.56,-0.08 0.7,-0.22 0.15,-0.15 0.22,-0.38 0.22,-0.69 0,-0.32 -0.07,-0.55 -0.22,-0.7 -0.14,-0.14 -0.38,-0.21 -0.7,-0.21l-0.34 0 0 1.82zm-0.61 0.51l0 -2.85 0.78 0c0.31,0 0.55,0.02 0.73,0.06 0.17,0.04 0.33,0.12 0.46,0.22 0.17,0.12 0.31,0.29 0.39,0.48 0.09,0.2 0.14,0.42 0.14,0.67 0,0.25 -0.05,0.48 -0.14,0.67 -0.09,0.2 -0.22,0.36 -0.4,0.49 -0.13,0.09 -0.27,0.16 -0.43,0.2 -0.16,0.04 -0.39,0.06 -0.7,0.06l-0.22 0 -0.61 0z"/>
   <path class="fil1" d="M6.93 36.87l-0.32 -0.92c-0.01,-0.02 -0.02,-0.07 -0.04,-0.14 -0.01,-0.06 -0.03,-0.15 -0.04,-0.24 -0.02,0.09 -0.04,0.17 -0.05,0.25 -0.02,0.07 -0.03,0.12 -0.04,0.14l-0.3 0.91 0.79 0zm-1.82 1.09l1.09 -2.85 0.69 0 1.11 2.85 -0.7 0 -0.23 -0.61 -1.11 0 -0.2 0.61 -0.65 0z"/>
   <path class="fil1" d="M10.36 37.96l-0.71 0 -0.75 -1.33 0 1.33 -0.61 0 0 -2.85 0.88 0c0.34,0 0.6,0.06 0.78,0.2 0.17,0.13 0.26,0.34 0.26,0.61 0,0.19 -0.06,0.36 -0.18,0.5 -0.12,0.14 -0.27,0.22 -0.46,0.24l0.79 1.3zm-1.46 -1.64l0.1 0c0.24,0 0.41,-0.02 0.48,-0.08 0.08,-0.05 0.12,-0.15 0.12,-0.28 0,-0.14 -0.04,-0.24 -0.12,-0.3 -0.09,-0.06 -0.25,-0.09 -0.48,-0.09l-0.1 0 0 0.75z"/>
   <polygon class="fil1" points="10.57,37.25 10.57,36.76 11.66,36.76 11.66,37.25 "/>
   <polygon class="fil1" points="12.27,37.96 12.27,35.11 13.95,35.11 13.95,35.62 12.88,35.62 12.88,36.21 13.95,36.21 13.95,36.73 12.88,36.73 12.88,37.44 13.95,37.44 13.95,37.96 "/>
   <polygon class="fil1" points="14.59,37.25 14.59,36.76 15.68,36.76 15.68,37.25 "/>
   <path class="fil1" d="M17.7 36.87l-0.32 -0.92c-0.01,-0.02 -0.03,-0.07 -0.04,-0.14 -0.01,-0.06 -0.03,-0.15 -0.04,-0.24 -0.02,0.09 -0.04,0.17 -0.05,0.25 -0.02,0.07 -0.03,0.12 -0.04,0.14l-0.31 0.91 0.8 0zm-1.82 1.09l1.08 -2.85 0.7 0 1.1 2.85 -0.69 0 -0.23 -0.61 -1.11 0 -0.2 0.61 -0.65 0z"/>
   <path class="fil1" d="M21.13 37.96l-0.71 0 -0.75 -1.33 0 1.33 -0.61 0 0 -2.85 0.88 0c0.34,0 0.6,0.06 0.78,0.2 0.17,0.13 0.25,0.34 0.25,0.61 0,0.19 -0.06,0.36 -0.17,0.5 -0.12,0.14 -0.27,0.22 -0.46,0.24l0.79 1.3zm-1.46 -1.64l0.09 0c0.25,0 0.41,-0.02 0.49,-0.08 0.08,-0.05 0.12,-0.15 0.12,-0.28 0,-0.14 -0.04,-0.24 -0.13,-0.3 -0.08,-0.06 -0.24,-0.09 -0.48,-0.09l-0.09 0 0 0.75z"/>
   <path class="fil1" d="M23.28 36.99l0.21 0.25c0.09,-0.09 0.16,-0.2 0.21,-0.32 0.04,-0.12 0.07,-0.25 0.07,-0.38 0,-0.27 -0.09,-0.5 -0.26,-0.68 -0.17,-0.19 -0.38,-0.28 -0.63,-0.28 -0.26,0 -0.47,0.09 -0.64,0.28 -0.17,0.18 -0.26,0.41 -0.26,0.68 0,0.27 0.09,0.5 0.25,0.68 0.17,0.18 0.38,0.27 0.64,0.27 0.02,0 0.05,0 0.09,0 0.04,-0.01 0.09,-0.01 0.14,-0.02l-0.41 -0.48 0.59 0zm1.1 1.3l-0.61 0 -0.31 -0.37c-0.14,0.04 -0.25,0.07 -0.35,0.08 -0.09,0.02 -0.17,0.03 -0.24,0.03 -0.2,0 -0.39,-0.04 -0.58,-0.12 -0.19,-0.07 -0.35,-0.18 -0.49,-0.32 -0.14,-0.14 -0.25,-0.3 -0.33,-0.48 -0.08,-0.18 -0.12,-0.37 -0.12,-0.57 0,-0.2 0.04,-0.4 0.12,-0.58 0.07,-0.18 0.19,-0.34 0.33,-0.48 0.14,-0.14 0.3,-0.25 0.49,-0.33 0.19,-0.07 0.38,-0.11 0.59,-0.11 0.2,0 0.39,0.04 0.58,0.11 0.18,0.08 0.35,0.19 0.49,0.33 0.15,0.14 0.26,0.3 0.33,0.48 0.08,0.18 0.12,0.37 0.12,0.58 0,0.22 -0.05,0.43 -0.14,0.62 -0.09,0.19 -0.23,0.37 -0.4,0.52l0.52 0.61z"/>
   <path class="fil1" d="M26.39 36.87l-0.32 -0.92c0,-0.02 -0.02,-0.07 -0.03,-0.14 -0.01,-0.06 -0.03,-0.15 -0.04,-0.24 -0.02,0.09 -0.04,0.17 -0.05,0.25 -0.02,0.07 -0.03,0.12 -0.04,0.14l-0.31 0.91 0.79 0zm-1.81 1.09l1.08 -2.85 0.7 0 1.1 2.85 -0.69 0 -0.23 -0.61 -1.11 0 -0.2 0.61 -0.65 0z"/>
   <path class="fil1" d="M27.51 37.96l0.44 -2.85 0.64 0 0.55 1.68c0.01,0.03 0.02,0.08 0.04,0.15 0.01,0.07 0.02,0.15 0.03,0.23 0.01,-0.09 0.03,-0.16 0.04,-0.23 0.01,-0.07 0.02,-0.12 0.04,-0.16l0.56 -1.67 0.62 0 0.44 2.85 -0.58 0 -0.21 -1.72c-0.01,-0.13 -0.02,-0.23 -0.03,-0.29 0,-0.06 -0.01,-0.13 -0.01,-0.18 0,-0.03 0,-0.05 0.01,-0.07 0,-0.01 0,-0.03 0,-0.04 -0.02,0.11 -0.04,0.21 -0.06,0.29 -0.01,0.08 -0.03,0.14 -0.04,0.19l-0.61 1.82 -0.34 0 -0.6 -1.82c0,-0.02 -0.01,-0.07 -0.03,-0.14 -0.02,-0.08 -0.04,-0.19 -0.07,-0.34l0 0.08c0,0.14 -0.01,0.3 -0.04,0.49l0 0.01 -0.21 1.72 -0.58 0z"/>
   <path class="fil0" d="M8.93 25.22l-2.57 6.26c0,0 1.23,0.83 2.78,0.78 1.11,-0.03 1.84,-0.61 2.88,-0.93 1.34,-0.4 3.29,-0.57 4.52,1.23 1.24,-1.8 3.19,-1.63 4.52,-1.23 1.04,0.32 1.78,0.9 2.89,0.93 1.55,0.05 2.78,-0.78 2.78,-0.78l-2.57 -6.26c-5.08,0 -10.16,0 -15.23,0z"/>
   <path class="fil1" d="M8.97 25.31l-2.52 6.14c0.26,0.16 1.35,0.77 2.69,0.73 0.7,-0.02 1.25,-0.27 1.83,-0.52 0.32,-0.15 0.66,-0.29 1.03,-0.41 0.78,-0.23 1.76,-0.39 2.69,-0.14 0.67,0.19 1.32,0.58 1.85,1.31 0.53,-0.73 1.18,-1.12 1.85,-1.31 0.94,-0.25 1.92,-0.09 2.69,0.14 0.38,0.12 0.71,0.26 1.04,0.41 0.58,0.25 1.13,0.5 1.83,0.52 1.33,0.04 2.42,-0.57 2.68,-0.73l-2.52 -6.14 -15.14 0zm-2.68 6.14l2.57 -6.26 0.02 -0.05 0.05 0 15.23 0 0.05 0 0.02 0.05 2.56 6.26 0.03 0.07 -0.06 0.04c0,0 -1.24,0.83 -2.81,0.79 -0.73,-0.03 -1.3,-0.28 -1.89,-0.54 -0.32,-0.14 -0.65,-0.28 -1.02,-0.4 -0.75,-0.23 -1.71,-0.38 -2.61,-0.14 -0.67,0.19 -1.31,0.59 -1.83,1.34l-0.06 0.09 -0.06 -0.09c-0.51,-0.75 -1.16,-1.15 -1.83,-1.34 -0.9,-0.24 -1.85,-0.09 -2.61,0.14 -0.37,0.12 -0.7,0.26 -1.02,0.4 -0.59,0.26 -1.15,0.51 -1.88,0.54 -1.57,0.04 -2.82,-0.79 -2.82,-0.79l-0.06 -0.04 0.03 -0.07z"/>
   <path class="fil0" d="M16.54 32.18l0.01 -6.55c0,0 1.66,-2.25 4.44,-0.74 0,0 1.24,0.54 2.15,0.27l2.56 6.5c0,0 -1.31,0.24 -2.71,0 -1.37,-0.22 -2.12,-1.14 -3.59,-1.12 -0.98,0.01 -2.22,0.18 -2.86,1.64zm0 0l0 -6.55c0,0 -1.67,-2.25 -4.45,-0.74 0,0 -1.24,0.54 -2.14,0.27l-2.57 6.5c0,0 1.31,0.24 2.71,0 1.37,-0.22 2.12,-1.14 3.59,-1.12 0.99,0.01 2.22,0.18 2.86,1.64z"/>
   <path class="fil1" d="M16.62 25.67l0 6.18c0.32,-0.57 0.74,-0.91 1.19,-1.11 0.53,-0.23 1.09,-0.27 1.59,-0.28 0.85,-0.01 1.46,0.28 2.08,0.58 0.46,0.22 0.94,0.44 1.52,0.54 1.17,0.2 2.27,0.06 2.6,0.01l-2.51 -6.33c-0.92,0.24 -2.12,-0.29 -2.13,-0.29l0 0c-2.57,-1.4 -4.16,0.47 -4.34,0.7zm-0.08 -0.15c0.31,-0.37 1.93,-2.09 4.48,-0.7 0.07,0.03 1.24,0.52 2.1,0.26l0.06 -0.02 0.02 0.07 2.57 6.49 0.04 0.1 -0.09 0.02c-0.01,0 -1.33,0.24 -2.74,0.01 -0.6,-0.1 -1.09,-0.33 -1.56,-0.56 -0.61,-0.29 -1.2,-0.57 -2.02,-0.56 -0.48,0 -1.03,0.05 -1.53,0.27 -0.5,0.21 -0.95,0.61 -1.26,1.31l-0.07 -0.01 -0.07 0.01c-0.31,-0.7 -0.76,-1.1 -1.26,-1.31 -0.5,-0.22 -1.04,-0.27 -1.53,-0.27 -0.81,-0.01 -1.41,0.27 -2.01,0.56 -0.48,0.23 -0.96,0.46 -1.57,0.56 -1.41,0.23 -2.73,-0.01 -2.73,-0.01l-0.1 -0.02 0.04 -0.1 2.57 -6.49 0.03 -0.07 0.06 0.02c0.85,0.26 2.02,-0.23 2.09,-0.26 2.55,-1.39 4.18,0.33 4.48,0.7zm-0.07 6.33l-0.01 -6.18c-0.18,-0.23 -1.77,-2.1 -4.33,-0.7l-0.01 0c0,0 -1.21,0.53 -2.13,0.29l-2.5 6.33c0.32,0.05 1.42,0.19 2.59,-0.01 0.59,-0.1 1.06,-0.32 1.53,-0.54 0.62,-0.3 1.22,-0.59 2.08,-0.58 0.49,0.01 1.06,0.05 1.58,0.28 0.46,0.2 0.88,0.54 1.2,1.11z"/>
   <path class="fil0" d="M16.54 31.92l0.01 -6.86c0,0 1.66,-2.26 4.44,-0.74 0,0 1.24,0.53 2.15,0.26l2.56 6.5c0,0 -1.31,0.28 -2.71,0.05 -1.37,-0.23 -2.11,-1.06 -3.59,-1.05 -0.98,0.02 -2.22,0.38 -2.86,1.84zm0 0l0 -6.86c0,0 -1.67,-2.26 -4.45,-0.74 0,0 -1.24,0.53 -2.14,0.26l-2.57 6.5c0,0 1.31,0.28 2.71,0.05 1.37,-0.23 2.12,-1.06 3.59,-1.05 0.99,0.02 2.22,0.38 2.86,1.84z"/>
   <path class="fil1" d="M16.62 25.09l0 6.5c0.27,-0.5 0.62,-0.85 1,-1.09 0.57,-0.37 1.22,-0.49 1.78,-0.5 0.86,-0.01 1.47,0.26 2.09,0.54 0.46,0.2 0.93,0.41 1.51,0.5 1.17,0.2 2.28,0.03 2.6,-0.02l-2.51 -6.34c-0.92,0.24 -2.12,-0.28 -2.13,-0.29l0 0c-2.57,-1.4 -4.16,0.47 -4.34,0.7zm-0.08 -0.15c0.31,-0.37 1.93,-2.09 4.48,-0.7 0.07,0.03 1.24,0.52 2.1,0.26l0.06 -0.01 0.02 0.06 2.57 6.5 0.04 0.09 -0.09 0.02c-0.01,0 -1.33,0.28 -2.74,0.05 -0.59,-0.1 -1.07,-0.31 -1.54,-0.52 -0.61,-0.27 -1.21,-0.53 -2.04,-0.52 -0.54,0.01 -1.16,0.12 -1.71,0.47 -0.42,0.28 -0.81,0.69 -1.08,1.32l-0.07 -0.02 -0.07 0.02c-0.27,-0.63 -0.65,-1.04 -1.08,-1.32 -0.55,-0.35 -1.17,-0.46 -1.71,-0.47 -0.82,-0.01 -1.42,0.25 -2.04,0.52 -0.46,0.21 -0.94,0.42 -1.54,0.52 -1.41,0.23 -2.73,-0.05 -2.73,-0.05l-0.1 -0.02 0.04 -0.09 2.57 -6.5 0.03 -0.06 0.06 0.01c0.85,0.26 2.02,-0.23 2.09,-0.26 2.55,-1.39 4.18,0.33 4.48,0.7zm-0.07 6.65l-0.01 -6.5c-0.18,-0.23 -1.77,-2.1 -4.33,-0.7l-0.01 0c0,0.01 -1.21,0.53 -2.13,0.29l-2.5 6.34c0.32,0.05 1.42,0.22 2.59,0.02 0.58,-0.09 1.05,-0.3 1.51,-0.5 0.63,-0.28 1.24,-0.55 2.1,-0.54 0.56,0.01 1.2,0.13 1.78,0.5 0.38,0.24 0.72,0.59 1,1.09z"/>
   <g>
    <path class="fil1" d="M38.44 10.58l0 6.35 1.54 0c1.68,0 2.88,-0.32 3.99,-1.32 1.06,-0.96 1.69,-2.38 1.69,-3.88 0,-1.18 -0.37,-2.1 -1.08,-2.69 -0.73,-0.62 -1.61,-0.76 -2.82,-0.76l-3.21 0 -0.52 1.95 3.75 0c1.02,0 1.58,0.56 1.58,1.6 0,1.63 -1.06,2.95 -2.6,3.1l0 -4.35 -2.32 0z"/>
    <path class="fil1" d="M51.78 8.28c-1.72,0 -3.03,0.44 -3.97,1.39 -0.98,0.98 -1.58,2.48 -1.58,4.16 0,1.46 0.47,2.9 1.39,4.31l1.84 -1.21c-0.55,-0.89 -0.84,-1.8 -0.88,-2.73l2.43 0 0 2.73 2.34 0 0 -6.35 -2.34 0 0 1.62 -2.2 0c0.51,-1.4 1.47,-1.97 3.13,-1.97l1.76 0 -0.53 -1.95 -1.39 0z"/>
    <path class="fil1" d="M60.03 13.21c1.24,-0.77 1.85,-1.66 1.85,-2.74 0,-1.35 -0.97,-2.19 -2.74,-2.19l-4.05 0 -0.53 1.95 4.11 0c0.44,0 0.68,0.2 0.68,0.52 0,0.55 -0.68,1.22 -2.01,2.08 0.87,1.97 1.94,3.78 3.35,5.37l1.84 -1.38c-0.9,-0.96 -1.73,-2.15 -2.5,-3.61zm-5.06 -2.63l0 6.35 2.32 0 0 -6.35 -2.32 0z"/>
    <polygon class="fil1" points="62.21,12.77 62.21,14.52 65.67,14.52 65.67,12.77 "/>
    <polygon class="fil1" points="72.49,10.2 71.96,8.28 66.7,8.28 66.7,16.93 72.16,16.93 72.78,14.98 69.02,14.98 69.02,13.49 71.61,13.49 72.18,11.55 69.02,11.55 69.02,10.2 "/>
    <polygon class="fil1" points="73.28,12.77 73.28,14.52 76.74,14.52 76.74,12.77 "/>
    <path class="fil1" d="M83.13 8.28c-1.73,0 -3.04,0.44 -3.98,1.39 -0.98,0.98 -1.58,2.48 -1.58,4.16 0,1.46 0.47,2.9 1.39,4.31l1.85 -1.21c-0.55,-0.89 -0.84,-1.8 -0.89,-2.73l2.44 0 0 2.73 2.33 0 0 -6.35 -2.33 0 0 1.62 -2.21 0c0.52,-1.4 1.47,-1.97 3.13,-1.97l1.76 0 -0.52 -1.95 -1.39 0z"/>
    <path class="fil1" d="M91.38 13.21c1.23,-0.77 1.84,-1.66 1.84,-2.74 0,-1.35 -0.97,-2.19 -2.74,-2.19l-4.05 0 -0.52 1.95 4.1 0c0.45,0 0.68,0.2 0.68,0.52 0,0.55 -0.68,1.22 -2.01,2.08 0.88,1.97 1.94,3.78 3.35,5.37l1.84 -1.38c-0.89,-0.96 -1.72,-2.15 -2.49,-3.61zm-5.07 -2.63l0 6.35 2.33 0 0 -6.35 -2.33 0z"/>
    <path class="fil1" d="M97.95 14.93c-0.27,0 -0.56,-0.17 -0.76,-0.48 -0.53,-0.79 -0.84,-1.85 -0.84,-2.78 0,-1.09 0.47,-1.5 1.6,-1.5 1.13,0 1.58,0.41 1.58,1.52 0,0.91 -0.32,1.98 -0.84,2.76 -0.19,0.31 -0.47,0.48 -0.74,0.48zm3.44 2l0.59 -2 -1.21 0.02c0.74,-1.12 1.11,-2.3 1.11,-3.45 0,-2.29 -1.28,-3.33 -3.93,-3.33 -2.66,0 -3.95,1.03 -3.95,3.34 0,0.97 0.28,2.14 0.87,3.28 0.31,0.62 0.73,1.13 1.25,1.53 0.67,0.52 1.44,0.61 2.45,0.61l2.82 0z"/>
    <path class="fil1" d="M108.06 8.28c-1.72,0 -3.03,0.44 -3.97,1.39 -0.98,0.98 -1.58,2.48 -1.58,4.16 0,1.46 0.47,2.9 1.39,4.31l1.84 -1.21c-0.55,-0.89 -0.84,-1.8 -0.88,-2.73l2.43 0 0 2.73 2.34 0 0 -6.35 -2.34 0 0 1.62 -2.2 0c0.51,-1.4 1.47,-1.97 3.13,-1.97l1.76 0 -0.53 -1.95 -1.39 0z"/>
    <polygon class="fil1" points="111.17,8.28 111.17,16.93 113.47,16.93 113.37,11.74 115.19,14.27 117.01,11.74 116.92,16.93 119.22,16.93 119.22,8.28 117.05,8.28 115.19,11.17 113.33,8.28 "/>
    <path class="fil1" d="M43.3 24.28l-0.52 -1.98 -2.12 0c-1.07,0 -1.78,0.12 -2.26,0.75 -0.27,0.36 -0.41,0.8 -0.41,1.26 0,0.59 0.24,1.18 0.67,1.67l2.06 2.31c0.12,0.14 0.18,0.27 0.18,0.35 0,0.21 -0.14,0.32 -0.41,0.32l-2.52 0 0.57 1.99 2 0c1,0 1.71,-0.04 2.24,-0.43 0.47,-0.35 0.75,-0.92 0.75,-1.55 0,-0.64 -0.28,-1.25 -0.85,-1.89l-1.89 -2.11c-0.13,-0.14 -0.21,-0.26 -0.21,-0.4 0,-0.21 0.14,-0.29 0.45,-0.29l2.27 0z"/>
    <path class="fil1" d="M49.29 30.95l0.11 0 0.59 -1.95 -0.18 0c-2.14,0 -3.42,-1.22 -3.42,-3.14 0,-1.16 0.56,-1.58 1.85,-1.58l1.61 0 -0.56 -1.98 -1.34 0c-1.19,0 -2.07,0.15 -2.77,0.73 -0.72,0.61 -1.1,1.52 -1.1,2.68 0,1.58 0.65,3.06 1.77,4.06 0.92,0.83 2,1.18 3.44,1.18z"/>
    <path class="fil1" d="M53.35 22.3l-2.34 0 0 6.99c0,1.38 0.06,2.35 0.46,2.95l2.01 -1.29c-0.11,-0.3 -0.13,-0.91 -0.13,-1.82l0 -2.12 2.32 0 0 3.94 2.32 0 0 -8.65 -2.32 0 0 2.71 -2.32 0 0 -2.71z"/>
    <path class="fil1" d="M62.98 22.2c-2.68,0 -3.94,1.03 -3.94,3.37 0,1.65 0.55,3.25 1.44,4.34 0.68,0.84 1.49,1.26 2.5,1.26 1,0 1.8,-0.42 2.48,-1.26 0.89,-1.09 1.44,-2.7 1.44,-4.34 0,-2.34 -1.25,-3.37 -3.92,-3.37zm-1.59 3.51c0,-1.12 0.44,-1.51 1.59,-1.51 1.16,0 1.57,0.4 1.57,1.57 0,1.06 -0.3,2.11 -0.83,2.92 -0.2,0.3 -0.48,0.48 -0.74,0.48 -0.4,0 -0.8,-0.37 -1.1,-1.08 -0.33,-0.76 -0.49,-1.58 -0.49,-2.38z"/>
    <path class="fil1" d="M71.48 22.2c-2.67,0 -3.93,1.03 -3.93,3.37 0,1.65 0.55,3.25 1.43,4.34 0.68,0.84 1.5,1.26 2.5,1.26 1.01,0 1.81,-0.42 2.49,-1.26 0.88,-1.09 1.43,-2.7 1.43,-4.34 0,-2.34 -1.25,-3.37 -3.92,-3.37zm-1.58 3.51c0,-1.12 0.44,-1.51 1.58,-1.51 1.17,0 1.58,0.4 1.58,1.57 0,1.06 -0.31,2.11 -0.83,2.92 -0.2,0.3 -0.48,0.48 -0.75,0.48 -0.39,0 -0.79,-0.37 -1.09,-1.08 -0.33,-0.76 -0.49,-1.58 -0.49,-2.38z"/>
    <polygon class="fil1" points="76.51,22.3 76.51,30.95 81.24,30.95 81.83,28.84 78.83,28.84 78.83,22.3 "/>
    <path class="fil1" d="M87.62 24.28l-0.52 -1.98 -2.12 0c-1.07,0 -1.78,0.12 -2.26,0.75 -0.27,0.36 -0.41,0.8 -0.41,1.26 0,0.59 0.23,1.18 0.67,1.67l2.06 2.31c0.12,0.14 0.18,0.27 0.18,0.35 0,0.21 -0.14,0.32 -0.41,0.32l-2.52 0 0.57 1.99 1.99 0c1.01,0 1.72,-0.04 2.25,-0.43 0.47,-0.35 0.75,-0.92 0.75,-1.55 0,-0.64 -0.28,-1.25 -0.85,-1.89l-1.89 -2.11c-0.13,-0.14 -0.21,-0.26 -0.21,-0.4 0,-0.21 0.14,-0.29 0.45,-0.29l2.27 0z"/>
   </g>
  </g>
 </g>
</svg>
